# xmcd
#
# Track frame offsets:
#  183
#  19108
#  39658
#  54695
#  71133
#  81820
#  89233
#  104158
#  147133
#  162358
#
# Disc length: 2342 seconds
#
# Revision: 0
# Processed by: cddbd v1.5.1PL2 Copyright (c) Steve Scherf et al.
# Submitted via: Collectorz.com_Music_Collector 6.11
#
DISCID=9209240a
DTITLE=Tinsley Ellis - Cool On It
DYEAR=1991
DGENRE=Blues Rock
TTITLE0=Drivin' Woman
TTITLE1=Cool On It
TTITLE2=Hong Kong Mississippi
TTITLE3=Second Thoughts
TTITLE4=Sailor's Grave On The Prairie
TTITLE5=Greenwood Chainsaw Boogie
TTITLE6=Tulane
TTITLE7=Time To Quit
TTITLE8=Sugaree
TTITLE9=Wild Weekend
EXTD=
EXTT0=
EXTT1=
EXTT2=
EXTT3=
EXTT4=
EXTT5=
EXTT6=
EXTT7=
EXTT8=
EXTT9=
PLAYORDER=
